<?xml version="1.0" standalone="no"?><!-- Generator: Gravit.io --><svg xmlns="http://www.w3.org/2000/svg" xmlns:xlink="http://www.w3.org/1999/xlink" style="isolation:isolate" viewBox="0 0 32 32" width="32" height="32"><defs><clipPath id="_clipPath_FIuz3V9Q4sXB32WR9veH6d5jBPudxKnq"><rect width="32" height="32"/></clipPath></defs><g clip-path="url(#_clipPath_FIuz3V9Q4sXB32WR9veH6d5jBPudxKnq)"><g opacity="0"><rect x="0" y="0" width="32" height="32" transform="matrix(1,0,0,1,0,0)" fill="rgb(255,255,255)"/></g><g id="Group"><g id="Group"><path d=" M 29.487 25.684 C 28.101 23.789 26.683 20.862 26.792 18.442 L 26.399 12.113 C 26.4 6.013 22.092 1.066 15.991 1.065 C 9.888 1.067 5.58 6.011 5.58 12.114 L 5.187 19.412 C 5.08 21.815 3.891 23.758 2.52 25.644 C 2.323 25.916 2.544 26.434 2.911 26.434 C 3.279 26.434 28.609 26.435 29.026 26.435 C 29.445 26.435 29.676 25.943 29.487 25.684 Z " fill="rgb(255,255,255)"/></g><g id="Group" style="opacity:0.6;"><g opacity="0.6"><path d=" M 11.507 26.428 C 11.506 28.917 13.522 30.933 16.013 30.935 C 18.502 30.936 20.52 28.917 20.518 26.43 L 11.507 26.428 Z " fill="rgb(255,255,255)"/></g></g></g></g></svg>