<?xml version="1.0" standalone="no"?><!-- Generator: Gravit.io --><svg xmlns="http://www.w3.org/2000/svg" xmlns:xlink="http://www.w3.org/1999/xlink" style="isolation:isolate" viewBox="0 0 32 32" width="32" height="32"><defs><clipPath id="_clipPath_MAAwxdKG9yVwVjZ8V2lTtgqzTkpn9oEB"><rect width="32" height="32"/></clipPath></defs><g clip-path="url(#_clipPath_MAAwxdKG9yVwVjZ8V2lTtgqzTkpn9oEB)"><g opacity="0.4"><path d=" M 29.487 25.684 C 28.101 23.789 26.683 20.862 26.792 18.442 L 26.399 12.113 C 26.4 6.013 22.092 1.066 15.991 1.065 C 9.888 1.067 5.58 6.011 5.58 12.114 L 5.187 19.412 C 5.08 21.815 3.891 23.758 2.52 25.644 C 2.323 25.916 2.544 26.434 2.911 26.434 C 3.279 26.434 28.609 26.435 29.026 26.435 C 29.445 26.435 29.676 25.943 29.487 25.684 Z " fill="rgb(255,255,255)"/></g><g opacity="0.2"><path d=" M 11.507 26.428 C 11.506 28.917 13.522 30.933 16.013 30.935 C 18.502 30.936 20.52 28.917 20.518 26.43 L 11.507 26.428 L 11.507 26.428 Z " fill="rgb(255,255,255)"/></g><path d=" M 28.092 29.11 C 27.722 29.48 26.953 29.309 26.372 28.728 L 3.272 5.629 C 2.691 5.048 2.52 4.278 2.89 3.908 L 3.908 2.891 C 4.278 2.52 5.048 2.692 5.628 3.272 L 28.728 26.372 C 29.309 26.953 29.479 27.722 29.11 28.093 L 28.092 29.11 Z " fill="rgb(255,255,255)"/></g></svg>